{"title":"Red.Sky.2014.720p.BRRip.x264.AC3-MiLLENiUM (SilverTorrent)","uid":9759629,"size":2876821954,"categoryP":"video","categoryS":"hd___movies","magnet":"?xt=urn:btih:7a7af34ff320ddacb3acf968edd37e778962996a&amp;dn=Red.Sky.2014.720p.BRRip.x264.AC3-MiLLENiUM+%28SilverTorrent%29&amp;tr=udp%3A%2F%2Ftracker.openbittorrent.com%3A80&amp;tr=udp%3A%2F%2Fopen.demonii.com%3A1337&amp;tr=udp%3A%2F%2Ftracker.coppersurfer.tk%3A6969&amp;tr=udp%3A%2F%2Fexodus.desync.com%3A6969","seeders":1,"leechers":0,"uploader":"AliBaloch","files":3,"time":1394793899,"description":"SilverTorrent - Clean And Verified Torrents Download\n\n------------------------------------------------------\n\nRed.Sky.2014.720p.BRRip.x264.AC3-MiLLENiUM\n &lt;a href=&quot;\nhttp://www.imdb.com/title/tt1946381/&quot; rel=&quot;nofollow&quot; target=&quot;_NEW&quot;&gt;\nhttp://www.imdb.com/title/tt1946381/&lt;/a&gt;\n\nSource...............: BluRay,Thanks\n\n\n\nGeneral\nUnique ID                                : 213727464383913001851150893198164572387 (0xA0CA6990644A9000AE4DEA700CAB38E3)\nComplete name                            : Red.Sky.2014.720p.BRRip.x264.AC3-MiLLENiUM.mkv\nFormat                                   : Matroska\nFormat version                           : Version 2\nFile size                                : 2.66 GiB\nDuration                                 : 1h 47mn\nOverall bit rate mode                    : Variable\nOverall bit rate                         : 3 534 Kbps\nEncoded date                             : UTC 2014-03-11 17:15:24\nWriting application                      : mkvmerge v6.5.0 ('Isn't she lovely') built on Oct 20 2013 12:50:05\nWriting library                          : libebml v1.3.0 + libmatroska v1.4.1\n\n\n\nID                                       : 1\nFormat                                   : AVC\nFormat/Info                              : Advanced Video Codec\nFormat profile                           : &lt;a class=&quot;__cf_email__&quot; href=&quot;/cdn-cgi/l/email-protection&quot; data-cfemail=&quot;9bd3f2fcf3dbd7afb5aa&quot;&gt;[email&amp;#160;protected]&lt;/a&gt;&lt;script cf-hash='f9e31' type=&quot;text/javascript&quot;&gt;\n/* &lt;![CDATA[ */!function(){try{var t=&quot;currentScript&quot;in document?document.currentScript:function(){for(var t=document.getElementsByTagName(&quot;script&quot;),e=t.length;e--;)if(t[e].getAttribute(&quot;cf-hash&quot;))return t[e]}();if(t&amp;&amp;t.previousSibling){var e,r,n,i,c=t.previousSibling,a=c.getAttribute(&quot;data-cfemail&quot;);if(a){for(e=&quot;&quot;,r=parseInt(a.substr(0,2),16),n=2;a.length-n;n+=2)i=parseInt(a.substr(n,2),16)^r,e+=String.fromCharCode(i);e=document.createTextNode(e),c.parentNode.replaceChild(e,c)}}}catch(u){}}();/* ]]&gt; */&lt;/script&gt;\nFormat settings, CABAC                   : Yes\nFormat settings, ReFrames                : 3 frames\nCodec ID                                 : V_MPEG4/ISO/AVC\nDuration                                 : 1h 47mn\nBit rate mode                            : Variable\nBit rate                                 : 2 824 Kbps\nMaximum bit rate                         : 40.0 Mbps\nWidth                                    : 1 280 pixels\nHeight                                   : 536 pixels\nDisplay aspect ratio                     : 2.40:1\nFrame rate mode                          : Constant\nFrame rate                               : 23.976 fps\nColor space                              : YUV\nChroma subsampling                       : 4:2:0\nBit depth                                : 8 bits\nScan type                                : Progressive\nBits/(Pixel*Frame)                       : 0.172\nStream size                              : 2.12 GiB (80%)\nWriting library                          : x264 core 138 r2358 9e941d1\nLanguage                                 : English\nDefault                                  : Yes\nForced                                   : No\n\n\n\n\nID                                       : 2\nFormat                                   : AC-3\nFormat/Info                              : Audio Coding 3\nMode extension                           : CM (complete main)\nFormat settings, Endianness              : Big\nCodec ID                                 : A_AC3\nDuration                                 : 1h 47mn\nBit rate mode                            : Constant\nBit rate                                 : 640 Kbps\nChannel(s)                               : 6 channels\nChannel positions                        : Front: L C R, Side: L R, LFE\nSampling rate                            : 48.0 KHz\nBit depth                                : 16 bits\nCompression mode                         : Lossy\nStream size                              : 493 MiB (18%)\nLanguage                                 : English\nDefault                                  : Yes\nForced                                   : No\n\nMenu\n00:00:00.000                             : de:00:00:00.000\n00:13:38.526                             : de:00:13:38.526\n00:20:12.503                             : de:00:20:12.503\n00:28:01.388                             : de:00:28:01.388\n00:36:12.128                             : de:00:36:12.128\n00:47:46.489                             : de:00:47:46.489\n00:57:23.815                             : de:00:57:23.815\n01:08:48.249                             : de:01:08:48.249\n01:15:41.829                             : de:01:15:41.829\n01:24:37.990                             : de:01:24:37.990\n01:38:45.461                             : de:01:38:45.461\n01:43:22.863                             : de:01:43:22.863\n &lt;a href=&quot;\nhttp://lookpic.com/O/i2/1654/nvBsfS0J.png&quot; rel=&quot;nofollow&quot; target=&quot;_NEW&quot;&gt;\nhttp://lookpic.com/O/i2/1654/nvBsfS0J.png&lt;/a&gt; &lt;a href=&quot;\nhttp://lookpic.com/O/i2/1629/0sMaTbcr.png&quot; rel=&quot;nofollow&quot; target=&quot;_NEW&quot;&gt;\nhttp://lookpic.com/O/i2/1629/0sMaTbcr.png&lt;/a&gt; &lt;a href=&quot;\nhttp://lookpic.com/O/i2/1302/CVUihofC.png&quot; rel=&quot;nofollow&quot; target=&quot;_NEW&quot;&gt;\nhttp://lookpic.com/O/i2/1302/CVUihofC.png&lt;/a&gt; &lt;a href=&quot;\nhttp://lookpic.com/O/i2/1317/bzY2i4GJ.png&quot; rel=&quot;nofollow&quot; target=&quot;_NEW&quot;&gt;\nhttp://lookpic.com/O/i2/1317/bzY2i4GJ.png&lt;/a&gt; &lt;a href=&quot;\nhttp://lookpic.com/O/i2/322/rw3tbnB3.png&quot; rel=&quot;nofollow&quot; target=&quot;_NEW&quot;&gt;\nhttp://lookpic.com/O/i2/322/rw3tbnB3.png&lt;/a&gt; &lt;a href=&quot;\nhttp://s7.postimg.org/qqxmuctmz/mil.png&quot; rel=&quot;nofollow&quot; target=&quot;_NEW&quot;&gt;\nhttp://s7.postimg.org/qqxmuctmz/mil.png&lt;/a&gt;\n\n------------------------------------------------------\nSilverTorrent - Clean And Verified Torrents Download\n\n","torrent":{"xt":"urn:btih:7a7af34ff320ddacb3acf968edd37e778962996a","amp;dn":"Red.Sky.2014.720p.BRRip.x264.AC3-MiLLENiUM+%28SilverTorrent%29","amp;tr":["udp%3A%2F%2Ftracker.openbittorrent.com%3A80","udp%3A%2F%2Fopen.demonii.com%3A1337","udp%3A%2F%2Ftracker.coppersurfer.tk%3A6969","udp%3A%2F%2Fexodus.desync.com%3A6969"],"infoHash":"7a7af34ff320ddacb3acf968edd37e778962996a","infoHashBuffer":{"type":"Buffer","data":[122,122,243,79,243,32,221,172,179,172,249,104,237,211,126,119,137,98,153,106]},"announce":[],"urlList":[]}}